<?xml version="1.0" encoding="utf-8"?>
<!-- Generator: Adobe Illustrator 26.0.1, SVG Export Plug-In . SVG Version: 6.00 Build 0)  -->
<svg version="1.1" id="Layer_1" xmlns="http://www.w3.org/2000/svg" xmlns:xlink="http://www.w3.org/1999/xlink" x="0px" y="0px"
	 viewBox="0 0 389.7 132" style="enable-background:new 0 0 389.7 132;" xml:space="preserve">
<style type="text/css">
	.st0{fill:#FFFFFF;}
	.st1{fill:none;stroke:#000000;stroke-width:3;stroke-miterlimit:10;}
</style>
<g>
	<g>
		<g>
			<path class="st0" d="M150,65.8l7.2-0.3c1.1,0,1.6,0.3,1.6,1c0,0.7-0.7,1.2-2,1.4c-0.5,0.1-1,0.4-1.5,0.9c-0.5,0.5-0.8,1.2-1,2.1
				c-1.3,7.9-1.9,13.4-1.9,16.5v2.7c0,1.1-0.1,1.8-0.3,2c-0.2,0.2-0.6,0.4-1.3,0.6c-0.7,0.2-1.2,0.3-1.6,0.5c-0.4,0.1-1,0.4-1.8,0.7
				c-0.8,0.3-1.5,0.6-2.2,0.8c-0.7,0.2-1.6,0.5-2.8,0.9c-1.2,0.4-2.4,0.7-3.5,0.9c-2.9,0.6-5.7,0.9-8.6,0.9
				c-10.1,0-17.9-2.9-23.3-8.7c-5.4-5.8-8-13.5-8-23c0-4.5,1.3-9.5,4-15c1.4-2.9,3.5-5.5,6.2-8c2.8-2.5,6.1-4.4,9.9-5.7
				c3.8-1.3,7.3-2,10.3-2c3.1,0,5.8,0.2,8.3,0.6c2.4,0.4,4.5,1,6.1,1.6c1.7,0.6,3.1,1.3,4.4,1.9c1.3,0.6,2.3,1.2,3.1,1.6
				c0.7,0.4,1.2,0.6,1.3,0.6c0.1,0,0.5-0.3,1.2-0.9c0.6-0.6,1.1-0.9,1.3-0.9c0.7,0,1.1,0.5,1.1,1.5l-0.2,4.5c0,1.1,0.1,2.6,0.3,4.3
				c0.2,1.7,0.3,2.7,0.3,2.9c0,1.3-0.5,2-1.5,2c-0.5,0-0.8-0.3-1-0.8c-0.2-0.5-0.5-1.4-0.9-2.6c-0.4-1.2-0.9-2.2-1.6-3.2
				c-2.2-3.3-5.3-5.8-9.5-7.5c-4.2-1.7-8.6-2.6-13.2-2.6c-4.4,0-8.3,1.1-11.9,3.2c-2.1,1.3-3.9,2.9-5.4,4.9c-1.5,2-2.8,4.7-3.8,8
				c-1,3.4-1.5,7.3-1.5,11.6c0,8,2.2,14.7,6.7,20.3c4.4,5.5,10.2,8.3,17.4,8.3c2.6,0,4.8-0.2,6.6-0.6c1.8-0.4,3.5-1.2,5.2-2.4
				c3.3-2.5,5-7.8,5-15.7V75c0-3-0.2-4.9-0.7-5.6c-0.5-0.8-1.8-1.2-4-1.2h-0.8c-1.7,0-2.5-0.5-2.5-1.5c0-0.7,0.9-1.1,2.8-1.1
				L150,65.8z"/>
		</g>
		<g>
			<path class="st0" d="M169.6,96.4l-6.5,0.2c-1.1,0-1.7-0.3-1.7-0.9c0-0.7,0.7-1.3,2.1-1.8c1.7-0.7,3-1.7,3.9-3
				c1.4-2.2,2.5-4.2,3.4-5.9c0.9-1.7,1.9-3.5,2.9-5.3c1-1.8,2.4-4.2,4-7.2c1.6-3,3.3-6.1,5.2-9.3c10.2-18.3,15.5-27.7,15.8-28
				c0.3-0.3,0.7-0.4,1.2-0.4c0.5,0,0.8,0.2,1,0.6c0.2,0.4,0.5,1.4,1,3c0.5,1.6,0.8,2.7,0.9,3.4l0.8,2.8c1,3.8,3.5,11.7,7.4,23.7
				c3.9,12,6.2,18.9,6.9,20.6c0.7,1.7,1.2,2.9,1.8,3.5c0.5,0.6,1.6,1.2,3.3,1.7c0.9,0.3,1.4,0.9,1.4,1.7c0,0.6-0.9,0.9-2.7,0.9
				l-5.6-0.3l-8,0.4c-1.5,0-2.3-0.3-2.3-0.9c0-0.6,0.3-1,0.9-1.4c0.6-0.3,1.2-0.6,1.9-0.7c0.7-0.1,1.3-0.4,1.9-0.9
				c0.6-0.5,0.9-1.2,0.9-2.2c0-0.9-0.2-2.3-0.7-4.1c-0.5-1.8-1-3.7-1.6-5.8c-0.6-2.1-1.1-3.6-1.3-4.6c-0.3-1.4-1.4-2.1-3.1-2.1
				l-10.4,0.1c-4.4,0-7.3,0-8.7-0.1c-1.4-0.1-2.4-0.1-2.8-0.1c-1.5,0-2.6,0.4-3,1.3c-3.2,5.7-5.2,9.6-6.1,11.7
				c-0.8,2.1-1.2,3.3-1.2,3.4c0,1.4,0.5,2.4,1.5,2.9c1,0.5,1.9,0.8,2.9,0.9c1,0.1,1.5,0.5,1.5,1.1c0,0.8-0.3,1.2-0.8,1.2h-0.5
				L169.6,96.4z M187.3,70.3l16.4-0.1c0.8,0,1.3-0.2,1.4-0.6c0-0.2,0-0.5,0-1c0-0.5-1.2-4.5-3.7-12.1c-2.5-7.6-4-11.4-4.5-11.4
				c-0.3,0-2.7,4-7.1,12c-4.5,8-6.7,12.2-6.7,12.6c0,0.3,0.5,0.5,1.6,0.5H187.3z"/>
		</g>
		<g>
			<path class="st0" d="M235.9,96.4l-6.5,0.2c-1.1,0-1.7-0.3-1.7-0.9c0-0.7,0.7-1.3,2.1-1.8c1.7-0.7,3-1.7,3.9-3
				c1.4-2.2,2.5-4.2,3.4-5.9c0.9-1.7,1.9-3.5,2.9-5.3c1-1.8,2.4-4.2,4-7.2c1.6-3,3.3-6.1,5.2-9.3c10.2-18.3,15.5-27.7,15.8-28
				c0.3-0.3,0.7-0.4,1.2-0.4c0.5,0,0.8,0.2,1,0.6c0.2,0.4,0.5,1.4,1,3c0.5,1.6,0.8,2.7,0.9,3.4l0.8,2.8c1,3.8,3.5,11.7,7.4,23.7
				c3.9,12,6.2,18.9,6.9,20.6c0.7,1.7,1.2,2.9,1.8,3.5c0.5,0.6,1.6,1.2,3.3,1.7c0.9,0.3,1.4,0.9,1.4,1.7c0,0.6-0.9,0.9-2.7,0.9
				l-5.6-0.3l-8,0.4c-1.5,0-2.3-0.3-2.3-0.9c0-0.6,0.3-1,0.9-1.4c0.6-0.3,1.2-0.6,1.9-0.7c0.7-0.1,1.3-0.4,1.9-0.9
				c0.6-0.5,0.9-1.2,0.9-2.2c0-0.9-0.2-2.3-0.7-4.1c-0.5-1.8-1-3.7-1.6-5.8c-0.6-2.1-1.1-3.6-1.3-4.6c-0.3-1.4-1.4-2.1-3.1-2.1
				l-10.4,0.1c-4.4,0-7.3,0-8.7-0.1c-1.4-0.1-2.4-0.1-2.8-0.1c-1.5,0-2.6,0.4-3,1.3c-3.2,5.7-5.2,9.6-6.1,11.7
				c-0.8,2.1-1.2,3.3-1.2,3.4c0,1.4,0.5,2.4,1.5,2.9c1,0.5,1.9,0.8,2.9,0.9c1,0.1,1.5,0.5,1.5,1.1c0,0.8-0.3,1.2-0.8,1.2h-0.5
				L235.9,96.4z M253.6,70.3l16.4-0.1c0.8,0,1.3-0.2,1.4-0.6c0-0.2,0-0.5,0-1c0-0.5-1.2-4.5-3.7-12.1c-2.5-7.6-4-11.4-4.5-11.4
				c-0.3,0-2.7,4-7.1,12c-4.5,8-6.7,12.2-6.7,12.6c0,0.3,0.5,0.5,1.6,0.5H253.6z"/>
		</g>
	</g>
	<g>
		<path class="st0" d="M194.9,132c-51.7,0-100.3-6.7-136.9-18.8C20.6,100.8,0,84.1,0,66c0-18.1,20.6-34.8,57.9-47.2
			C94.6,6.7,143.2,0,194.9,0s100.3,6.7,136.9,18.8c37.4,12.4,57.9,29.1,57.9,47.2c0,18.1-20.6,34.8-57.9,47.2
			C295.2,125.3,246.6,132,194.9,132z M194.9,4.4C143.6,4.4,95.5,11,59.3,23C24.5,34.6,4.4,50.2,4.4,66c0,15.8,20,31.4,54.9,43
			c36.2,12,84.3,18.6,135.5,18.6s99.4-6.6,135.5-18.6c34.9-11.6,54.9-27.2,54.9-43c0-15.8-20-31.4-54.9-43
			C294.2,11,246.1,4.4,194.9,4.4z"/>
	</g>
</g>
</svg>
